<svg width="24" height="24" viewBox="0 0 24 24" fill="none" xmlns="http://www.w3.org/2000/svg">
<path d="M11.9 23L16.45 11H18.55L23.1 23H21L19.95 19.95H15.1L14 23H11.9ZM15.7 18.2H19.3L17.55 13.25H17.45L15.7 18.2ZM4 20L2.6 18.6L7.65 13.55C7.01667 12.85 6.4625 12.125 5.9875 11.375C5.5125 10.625 5.1 9.83333 4.75 9H6.85C7.15 9.6 7.47083 10.1417 7.8125 10.625C8.15417 11.1083 8.56667 11.6167 9.05 12.15C9.78333 11.35 10.3917 10.5292 10.875 9.6875C11.3583 8.84583 11.7667 7.95 12.1 7H1V5H8V3H10V5H17V7H14.1C13.75 8.18333 13.275 9.33333 12.675 10.45C12.075 11.5667 11.3333 12.6167 10.45 13.6L12.85 16.05L12.1 18.1L9 15L4 20Z" fill="#01DEFC"/>
</svg>
