<svg width="36" height="36" viewBox="0 0 36 36" fill="none" xmlns="http://www.w3.org/2000/svg">
<g clip-path="url(#clip0_5_330)">
<path fill-rule="evenodd" clip-rule="evenodd" d="M7.49061 6.07371C8.15918 5.38457 8.5269 4.464 8.51918 3.50743C8.48465 2.57893 8.09672 1.6987 7.43473 1.04674C6.77273 0.394778 5.88667 0.0203408 4.95776 0C4.02603 0.0199569 3.13675 0.393437 2.47017 1.04473C1.80359 1.69603 1.4096 2.57642 1.36804 3.50743C1.38188 4.4629 1.76203 5.37658 2.43002 6.05988C3.09801 6.74319 4.00285 7.14394 4.95776 7.17943C5.9143 7.15694 6.82381 6.7599 7.49061 6.07371ZM4.29433 11.9057C2.7849 11.8723 1.75633 11.8491 1.75633 13.6954V34.2463C1.75633 36.054 2.73861 36.018 4.1529 35.964C4.41004 35.9537 4.68004 35.9434 4.96033 35.9434C5.24319 35.9434 5.51318 35.9537 5.76776 35.964C7.1769 36.0154 8.13861 36.054 8.13861 34.2463V13.698C8.13861 11.8517 7.13061 11.8723 5.62633 11.9083C5.18153 11.9185 4.73656 11.9185 4.29176 11.9083L4.29433 11.9057ZM14.796 11.9443C14.112 12.0806 13.6723 12.5177 13.6723 13.6954V34.2463C13.6723 36.054 14.616 36.018 16.0329 35.964C16.29 35.9537 16.5652 35.9434 16.8506 35.9434C17.1386 35.9434 17.4112 35.9537 17.6709 35.964C19.0955 36.0154 20.0572 36.054 20.0572 34.2463V23.2869C20.0024 22.7266 20.0672 22.1612 20.2474 21.6279C20.4276 21.0947 20.7191 20.6058 21.1025 20.1937C21.4859 19.7816 21.9525 19.4557 22.4714 19.2375C22.9903 19.0194 23.5496 18.9139 24.1123 18.9283C24.6778 18.8944 25.2438 18.9828 25.7721 19.1873C26.3003 19.3917 26.7783 19.7076 27.1736 20.1133C27.5688 20.5191 27.8721 21.0052 28.0626 21.5386C28.2532 22.072 28.3267 22.6402 28.278 23.2046V34.1614C28.278 35.9717 29.2192 35.9357 30.636 35.8817C30.8932 35.8714 31.1683 35.8611 31.4538 35.8611C31.7418 35.8611 32.0143 35.8714 32.274 35.8817C33.6909 35.9331 34.632 35.9717 34.632 34.164V20.1343C34.6847 18.9824 34.4944 17.8324 34.0734 16.7589C33.6523 15.6855 33.0101 14.7126 32.1883 13.9038C31.3666 13.0949 30.3838 12.468 29.3038 12.064C28.2239 11.6599 27.0709 11.4877 25.92 11.5586C24.7479 11.4519 23.5679 11.648 22.4932 12.1279C21.4185 12.6079 20.485 13.3557 19.782 14.2997C19.8103 13.2866 19.4812 11.9443 18.6609 11.9443C18.4243 11.9443 18.0618 11.9314 17.6503 11.9186C16.6218 11.8877 15.2846 11.8466 14.796 11.9443Z" fill="#01DEFC"/>
</g>
<defs>
<clipPath id="clip0_5_330">
<rect width="36" height="36" fill="white"/>
</clipPath>
</defs>
</svg>
