<svg width="161" height="35" viewBox="0 0 161 35" fill="none" xmlns="http://www.w3.org/2000/svg">
<path d="M35.144 34H27.416L26.84 20.992C26.68 17.888 26.6 15.12 26.6 12.688C26.6 10.832 26.648 9.072 26.744 7.408L21.608 30.496H14.168L8.696 7.408C8.888 10.192 8.984 12.816 8.984 15.28C8.984 17.136 8.936 19.072 8.84 21.088L8.264 34H0.584L3.08 0.735999H13.016L18.008 23.296L22.664 0.735999H32.648L35.144 34ZM60.6864 26.608C60.6864 27.568 60.8144 28.272 61.0704 28.72C61.3584 29.168 61.8064 29.504 62.4144 29.728L60.8304 34.672C59.2624 34.544 57.9824 34.208 56.9904 33.664C55.9984 33.088 55.2304 32.192 54.6864 30.976C53.0224 33.536 50.4624 34.816 47.0064 34.816C44.4784 34.816 42.4624 34.08 40.9584 32.608C39.4544 31.136 38.7024 29.216 38.7024 26.848C38.7024 24.064 39.7264 21.936 41.7744 20.464C43.8224 18.992 46.7824 18.256 50.6544 18.256H53.2464V17.152C53.2464 15.648 52.9264 14.624 52.2864 14.08C51.6464 13.504 50.5264 13.216 48.9264 13.216C48.0944 13.216 47.0864 13.344 45.9024 13.6C44.7184 13.824 43.5024 14.144 42.2544 14.56L40.5264 9.568C42.1264 8.96 43.7584 8.496 45.4224 8.176C47.1184 7.856 48.6864 7.696 50.1264 7.696C53.7744 7.696 56.4464 8.448 58.1424 9.952C59.8384 11.456 60.6864 13.712 60.6864 16.72V26.608ZM49.2144 29.392C50.9424 29.392 52.2864 28.576 53.2464 26.944V22.432H51.3744C49.6464 22.432 48.3504 22.736 47.4864 23.344C46.6544 23.952 46.2384 24.896 46.2384 26.176C46.2384 27.2 46.4944 28 47.0064 28.576C47.5504 29.12 48.2864 29.392 49.2144 29.392ZM83.4313 32.8C82.5033 33.44 81.4153 33.936 80.1673 34.288C78.9513 34.64 77.7353 34.816 76.5193 34.816C70.9513 34.784 68.1673 31.712 68.1673 25.6V13.792H64.5673V8.512H68.1673V2.992L75.7513 2.128V8.512H81.6073L80.7913 13.792H75.7513V25.504C75.7513 26.688 75.9433 27.536 76.3273 28.048C76.7113 28.56 77.3193 28.816 78.1513 28.816C79.0153 28.816 79.9273 28.544 80.8873 28L83.4313 32.8ZM108.063 20.752C108.063 21.808 108.015 22.72 107.919 23.488H92.1271C92.3831 25.632 92.9911 27.136 93.9511 28C94.9111 28.864 96.2391 29.296 97.9351 29.296C98.9591 29.296 99.9511 29.12 100.911 28.768C101.871 28.384 102.911 27.808 104.031 27.04L107.151 31.264C104.175 33.632 100.863 34.816 97.2151 34.816C93.0871 34.816 89.9191 33.6 87.7111 31.168C85.5031 28.736 84.3991 25.472 84.3991 21.376C84.3991 18.784 84.8631 16.464 85.7911 14.416C86.7191 12.336 88.0791 10.704 89.8711 9.52C91.6631 8.304 93.8071 7.696 96.3031 7.696C99.9831 7.696 102.863 8.848 104.943 11.152C107.023 13.456 108.063 16.656 108.063 20.752ZM100.623 18.592C100.559 14.688 99.1831 12.736 96.4951 12.736C95.1831 12.736 94.1591 13.216 93.4231 14.176C92.7191 15.136 92.2871 16.72 92.1271 18.928H100.623V18.592ZM134.547 34H127.971L127.635 30.784C125.779 33.472 123.203 34.816 119.907 34.816C117.571 34.816 115.795 34.112 114.579 32.704C113.395 31.296 112.803 29.328 112.803 26.8V8.512H120.387V25.84C120.387 27.088 120.579 27.968 120.963 28.48C121.379 28.96 122.003 29.2 122.835 29.2C124.435 29.2 125.811 28.208 126.963 26.224V8.512H134.547V34ZM150.208 7.696C152.032 7.696 153.744 7.968 155.344 8.512C156.944 9.056 158.352 9.824 159.568 10.816L156.784 15.088C154.704 13.776 152.608 13.12 150.496 13.12C149.504 13.12 148.736 13.296 148.192 13.648C147.68 13.968 147.424 14.432 147.424 15.04C147.424 15.52 147.536 15.92 147.76 16.24C148.016 16.528 148.512 16.832 149.248 17.152C149.984 17.472 151.12 17.856 152.656 18.304C155.312 19.072 157.28 20.08 158.56 21.328C159.872 22.544 160.528 24.24 160.528 26.416C160.528 28.144 160.032 29.648 159.04 30.928C158.048 32.176 156.688 33.136 154.96 33.808C153.232 34.48 151.312 34.816 149.2 34.816C147.056 34.816 145.056 34.48 143.2 33.808C141.376 33.136 139.824 32.208 138.544 31.024L142.24 26.896C144.384 28.56 146.64 29.392 149.008 29.392C150.16 29.392 151.056 29.184 151.696 28.768C152.368 28.352 152.704 27.76 152.704 26.992C152.704 26.384 152.576 25.904 152.32 25.552C152.064 25.2 151.568 24.88 150.832 24.592C150.096 24.272 148.928 23.888 147.328 23.44C144.8 22.704 142.912 21.68 141.664 20.368C140.416 19.056 139.792 17.424 139.792 15.472C139.792 14 140.208 12.688 141.04 11.536C141.904 10.352 143.12 9.424 144.688 8.752C146.288 8.048 148.128 7.696 150.208 7.696Z" fill="#0D0D0D"/>
</svg>
