<svg width="180" height="33" viewBox="0 0 180 33" fill="none" xmlns="http://www.w3.org/2000/svg">
<path d="M33.604 6.056C36.7933 6.056 39.3233 7.022 41.194 8.954C43.0953 10.886 44.046 13.5693 44.046 17.004V32H36.226V18.062C36.226 16.406 35.7813 15.1333 34.892 14.244C34.0333 13.324 32.8373 12.864 31.304 12.864C29.7707 12.864 28.5593 13.324 27.67 14.244C26.8113 15.1333 26.382 16.406 26.382 18.062V32H18.562V18.062C18.562 16.406 18.1173 15.1333 17.228 14.244C16.3693 13.324 15.1733 12.864 13.64 12.864C12.1067 12.864 10.8953 13.324 10.006 14.244C9.14733 15.1333 8.718 16.406 8.718 18.062V32H0.852V6.332H8.718V9.552C9.51533 8.47867 10.558 7.63533 11.846 7.022C13.134 6.378 14.5907 6.056 16.216 6.056C18.148 6.056 19.8653 6.47 21.368 7.298C22.9013 8.126 24.0973 9.30667 24.956 10.84C25.8453 9.42933 27.0567 8.27933 28.59 7.39C30.1233 6.50067 31.7947 6.056 33.604 6.056ZM47.9833 19.12C47.9833 16.4827 48.474 14.1673 49.4553 12.174C50.4673 10.1807 51.832 8.64733 53.5493 7.574C55.2666 6.50067 57.1833 5.964 59.2993 5.964C61.1086 5.964 62.688 6.332 64.0373 7.068C65.4173 7.804 66.4753 8.77 67.2113 9.966V6.332H75.0773V32H67.2113V28.366C66.4446 29.562 65.3713 30.528 63.9913 31.264C62.642 32 61.0626 32.368 59.2533 32.368C57.168 32.368 55.2666 31.8313 53.5493 30.758C51.832 29.654 50.4673 28.1053 49.4553 26.112C48.474 24.088 47.9833 21.7573 47.9833 19.12ZM67.2113 19.166C67.2113 17.2033 66.6593 15.6547 65.5553 14.52C64.482 13.3853 63.1633 12.818 61.5993 12.818C60.0353 12.818 58.7013 13.3853 57.5973 14.52C56.524 15.624 55.9873 17.1573 55.9873 19.12C55.9873 21.0827 56.524 22.6467 57.5973 23.812C58.7013 24.9467 60.0353 25.514 61.5993 25.514C63.1633 25.514 64.482 24.9467 65.5553 23.812C66.6593 22.6773 67.2113 21.1287 67.2113 19.166ZM95.074 25.33V32H91.072C88.22 32 85.9967 31.31 84.402 29.93C82.8073 28.5193 82.01 26.2347 82.01 23.076V12.864H78.882V6.332H82.01V0.0759997H89.876V6.332H95.028V12.864H89.876V23.168C89.876 23.9347 90.06 24.4867 90.428 24.824C90.796 25.1613 91.4093 25.33 92.268 25.33H95.074ZM123.652 18.752C123.652 19.488 123.606 20.2547 123.514 21.052H105.712C105.834 22.6467 106.34 23.8733 107.23 24.732C108.15 25.56 109.269 25.974 110.588 25.974C112.55 25.974 113.915 25.146 114.682 23.49H123.054C122.624 25.1767 121.842 26.6947 120.708 28.044C119.604 29.3933 118.208 30.4513 116.522 31.218C114.835 31.9847 112.949 32.368 110.864 32.368C108.349 32.368 106.11 31.8313 104.148 30.758C102.185 29.6847 100.652 28.1513 99.5475 26.158C98.4435 24.1647 97.8915 21.834 97.8915 19.166C97.8915 16.498 98.4282 14.1673 99.5015 12.174C100.606 10.1807 102.139 8.64733 104.102 7.574C106.064 6.50067 108.318 5.964 110.864 5.964C113.348 5.964 115.556 6.48533 117.488 7.528C119.42 8.57067 120.922 10.058 121.996 11.99C123.1 13.922 123.652 16.176 123.652 18.752ZM115.602 16.682C115.602 15.3327 115.142 14.2593 114.222 13.462C113.302 12.6647 112.152 12.266 110.772 12.266C109.453 12.266 108.334 12.6493 107.414 13.416C106.524 14.1827 105.972 15.2713 105.758 16.682H115.602ZM153.147 6.332V32H145.281V28.504C144.484 29.6387 143.395 30.5587 142.015 31.264C140.666 31.9387 139.163 32.276 137.507 32.276C135.545 32.276 133.812 31.8467 132.309 30.988C130.807 30.0987 129.641 28.826 128.813 27.17C127.985 25.514 127.571 23.5667 127.571 21.328V6.332H135.391V20.27C135.391 21.9873 135.836 23.3213 136.725 24.272C137.615 25.2227 138.811 25.698 140.313 25.698C141.847 25.698 143.058 25.2227 143.947 24.272C144.837 23.3213 145.281 21.9873 145.281 20.27V6.332H153.147ZM169.239 32.368C167.001 32.368 165.007 31.9847 163.259 31.218C161.511 30.4513 160.131 29.4087 159.119 28.09C158.107 26.7407 157.54 25.238 157.417 23.582H165.191C165.283 24.4713 165.697 25.192 166.433 25.744C167.169 26.296 168.074 26.572 169.147 26.572C170.129 26.572 170.88 26.388 171.401 26.02C171.953 25.6213 172.229 25.1153 172.229 24.502C172.229 23.766 171.846 23.2293 171.079 22.892C170.313 22.524 169.071 22.1253 167.353 21.696C165.513 21.2667 163.98 20.822 162.753 20.362C161.527 19.8713 160.469 19.12 159.579 18.108C158.69 17.0653 158.245 15.67 158.245 13.922C158.245 12.45 158.644 11.116 159.441 9.92C160.269 8.69333 161.465 7.72733 163.029 7.022C164.624 6.31666 166.51 5.964 168.687 5.964C171.907 5.964 174.437 6.76133 176.277 8.356C178.148 9.95067 179.221 12.0667 179.497 14.704H172.229C172.107 13.8147 171.708 13.1093 171.033 12.588C170.389 12.0667 169.531 11.806 168.457 11.806C167.537 11.806 166.832 11.99 166.341 12.358C165.851 12.6953 165.605 13.1707 165.605 13.784C165.605 14.52 165.989 15.072 166.755 15.44C167.553 15.808 168.779 16.176 170.435 16.544C172.337 17.0347 173.885 17.5253 175.081 18.016C176.277 18.476 177.32 19.2427 178.209 20.316C179.129 21.3587 179.605 22.7693 179.635 24.548C179.635 26.0507 179.206 27.4 178.347 28.596C177.519 29.7613 176.308 30.6813 174.713 31.356C173.149 32.0307 171.325 32.368 169.239 32.368Z" fill="black"/>
</svg>
